<?xml version="1.0" standalone="no"?>
<!DOCTYPE svg PUBLIC "-//W3C//DTD SVG 20010904//EN"
 "http://www.w3.org/TR/2001/REC-SVG-20010904/DTD/svg10.dtd">
<svg version="1.0" xmlns="http://www.w3.org/2000/svg"
 width="230.000000pt" height="256.000000pt" viewBox="0 0 230.000000 256.000000"
 preserveAspectRatio="xMidYMid meet">

<g transform="translate(0.000000,256.000000) scale(0.100000,-0.100000)"
fill="#000000" stroke="none">
<path d="M30 1310 l0 -1250 1120 0 1120 0 0 1250 0 1250 -1120 0 -1120 0 0
-1250z m2225 0 l0 -1240 -539 0 c-297 0 -537 2 -535 4 2 2 213 124 469 271
256 147 475 275 487 284 12 9 32 34 45 56 l23 40 0 575 0 575 -25 44 c-28 49
-11 38 -625 392 -390 224 -390 224 -450 224 l-60 0 -475 -274 c-261 -150 -487
-285 -502 -299 l-28 -26 0 307 0 307 1108 0 1107 0 0 -1240z m-695 846 c471
-272 466 -268 490 -309 19 -31 20 -53 20 -545 0 -543 0 -542 -46 -584 -11 -9
-208 -125 -439 -259 -365 -210 -427 -243 -470 -246 -49 -5 -54 -2 -350 167
-538 309 -574 331 -598 364 -22 31 -22 31 -25 536 -2 328 1 517 7 541 6 19 21
45 33 56 18 17 670 397 843 492 30 17 52 21 90 18 44 -3 100 -33 445 -231z
m-1025 -1796 c242 -139 454 -261 470 -271 30 -18 22 -19 -467 -19 l-498 0 0
297 0 297 28 -26 c15 -14 225 -139 467 -278z"/>
<path d="M1061 2203 c-35 -14 -448 -256 -465 -272 -11 -12 -16 -26 -12 -37 4
-12 125 -87 323 -199 286 -162 323 -180 363 -179 39 0 73 17 260 127 118 70
223 137 232 148 25 29 11 50 -61 93 -87 53 -131 47 -175 -22 -17 -27 -53 -55
-129 -100 -59 -34 -116 -62 -127 -62 -12 0 -35 7 -53 16 -75 39 -317 186 -317
193 0 15 176 106 220 113 57 9 90 44 90 96 0 45 -6 55 -47 76 -32 16 -75 20
-102 9z"/>
<path d="M363 1807 c-65 -45 -63 -31 -63 -511 l0 -435 30 -34 c34 -39 77 -60
112 -55 l23 3 5 447 c5 432 6 448 25 462 11 9 28 18 38 21 56 20 -42 126 -115
124 -12 0 -37 -10 -55 -22z"/>
<path d="M1606 1477 c-147 -81 -242 -140 -247 -152 -9 -23 -12 -799 -3 -807 9
-10 507 280 537 313 l27 29 0 359 c0 334 -1 359 -18 374 -10 10 -27 17 -38 17
-10 -1 -127 -60 -258 -133z m142 -329 l-3 -213 -105 -62 c-58 -35 -108 -63
-112 -63 -5 0 -8 97 -8 215 l0 214 108 60 c59 34 110 61 115 61 4 0 6 -96 5
-212z"/>
<path d="M646 1560 c-57 -37 -59 -48 -68 -380 -4 -179 -4 -329 2 -363 11 -71
51 -138 100 -167 45 -28 221 -126 283 -158 68 -35 134 -40 170 -12 23 19 27
29 27 75 l0 53 -40 -5 c-32 -5 -53 2 -122 37 -211 107 -248 136 -268 208 -12
44 -14 192 -2 192 5 0 58 -27 118 -61 220 -123 268 -142 300 -121 17 11 27 50
20 85 -6 30 -20 40 -218 147 -117 62 -217 119 -221 124 -7 11 1 186 10 196 4
5 25 -6 218 -112 76 -43 149 -78 161 -78 30 0 46 24 48 70 1 55 -20 73 -204
171 -85 45 -171 90 -190 100 -45 24 -87 24 -124 -1z"/>
</g>
</svg>
